<svg viewBox="0 0 20 20" xmlns="http://www.w3.org/2000/svg">
<path d="M11 -4.76837e-08V3.03C14.39 3.52 17 6.42 17 9.95C17 10.85 16.82 11.7 16.5 12.49L19.12 14.02C19.68 12.78 20 11.4 20 9.95C20 4.77 16.05 0.5 11 -4.76837e-08ZM10 16.95C8.14348 16.95 6.36301 16.2125 5.05025 14.8997C3.7375 13.587 3 11.8065 3 9.95C3 6.42 5.61 3.52 9 3.03V-4.76837e-08C3.94 0.5 0 4.76 0 9.95C0 12.6022 1.05357 15.1457 2.92893 17.0211C3.85752 17.9497 4.95991 18.6863 6.17317 19.1888C7.38642 19.6913 8.68678 19.95 10 19.95C13.3 19.95 16.23 18.34 18.05 15.86L15.45 14.33C14.17 15.95 12.21 16.95 10 16.95Z"/>
</svg>
