<svg viewBox="0 0 12 12" xmlns="http://www.w3.org/2000/svg">
<path d="M9.4285 0.857147H2.57136V3.14286H9.4285V0.857147ZM9.99993 6C9.84838 6 9.70303 5.9398 9.59587 5.83264C9.4887 5.72547 9.4285 5.58013 9.4285 5.42858C9.4285 5.27702 9.4887 5.13168 9.59587 5.02452C9.70303 4.91735 9.84838 4.85715 9.99993 4.85715C10.1515 4.85715 10.2968 4.91735 10.404 5.02452C10.5112 5.13168 10.5714 5.27702 10.5714 5.42858C10.5714 5.58013 10.5112 5.72547 10.404 5.83264C10.2968 5.9398 10.1515 6 9.99993 6ZM8.28564 10H3.71422V7.14286H8.28564V10ZM9.99993 3.71429H1.99993C1.54527 3.71429 1.10924 3.8949 0.787747 4.21639C0.466256 4.53788 0.285645 4.97392 0.285645 5.42858V8.85715H2.57136V11.1429H9.4285V8.85715H11.7142V5.42858C11.7142 4.97392 11.5336 4.53788 11.2121 4.21639C10.8906 3.8949 10.4546 3.71429 9.99993 3.71429Z" />
</svg>
