<svg width="17" height="16" viewBox="0 0 17 16" fill="none" xmlns="http://www.w3.org/2000/svg">
<path d="M12.2836 8.8H9.08358V12H7.48358V8.8H4.28358V7.2H7.48358V4H9.08358V7.2H12.2836V8.8ZM8.28358 0C7.23301 0 6.19272 0.206926 5.22212 0.608964C4.25151 1.011 3.3696 1.60028 2.62673 2.34315C1.12644 3.84344 0.283585 5.87827 0.283585 8C0.283585 10.1217 1.12644 12.1566 2.62673 13.6569C3.3696 14.3997 4.25151 14.989 5.22212 15.391C6.19272 15.7931 7.23301 16 8.28358 16C10.4053 16 12.4401 15.1571 13.9404 13.6569C15.4407 12.1566 16.2836 10.1217 16.2836 8C16.2836 6.94943 16.0767 5.90914 15.6746 4.93853C15.2726 3.96793 14.6833 3.08601 13.9404 2.34315C13.1976 1.60028 12.3157 1.011 11.3451 0.608964C10.3744 0.206926 9.33416 0 8.28358 0Z" fill="#367BF5"/>
</svg>
